<?xml version="1.0" encoding="utf-8"?>
<!-- Generator: Adobe Illustrator 24.1.1, SVG Export Plug-In . SVG Version: 6.00 Build 0)  -->
<svg version="1.1" id="Layer_1" xmlns="http://www.w3.org/2000/svg" xmlns:xlink="http://www.w3.org/1999/xlink" x="0px" y="0px"
	 viewBox="0 0 512 512" style="enable-background:new 0 0 512 512;" xml:space="preserve">
<g>
	<path d="M226.2,294.5c-44.4-12.9-76.9-53.9-76.9-102.5V42.7h213.3v170.7h42.7V0H106.7v192c0,68,45.4,125.4,107.6,143.4L226.2,294.5
		L226.2,294.5z M128,42.7H0v106.7c-0.1,31.8,11.8,59.5,31.6,78.2c19.8,18.8,46.7,28.5,75,28.4l21.3,0v-42.7h-21.3
		c-18.8,0-34.6-6.3-45.7-16.7C50,186,42.8,171,42.7,149.3v-64l85.3,0V42.7L128,42.7z M432.2,253c22.4-5.1,42.7-17.2,57.2-35.2
		c14.5-18,22.7-41.8,22.7-68.4V42.7H384v42.7l85.3,0l0,64c-0.1,18.2-5.3,31.7-13.3,41.8c-8.1,10.1-19.4,17.1-33.5,20.3L432.2,253
		L432.2,253z M213.3,384h-128v128H352v-42.7l-224,0v-42.7l85.3,0V384L213.3,384z M352,213.3V192c-88.4,0-160,71.6-160,160
		c0,88.4,71.6,160,160,160c88.4,0,160-71.6,160-160c0-88.4-71.6-160-160-160V213.3v21.3c32.5,0,61.7,13.1,83,34.4
		c21.3,21.3,34.4,50.5,34.4,83c0,32.5-13.1,61.7-34.4,83c-21.3,21.3-50.5,34.4-83,34.4c-32.5,0-61.7-13.1-83-34.4
		c-21.3-21.3-34.4-50.5-34.4-83c0-32.5,13.1-61.7,34.4-83c21.3-21.3,50.5-34.4,83-34.4V213.3z M411.6,283.6l-80.9,80.9l-38.2-38.2
		l-30.2,30.2l68.4,68.4l111.1-111.1L411.6,283.6L411.6,283.6z M208.1,310c-34.9,17.5-58.8,53.7-58.8,95.3H192
		c0-25,14.4-46.7,35.3-57.2L208.1,310L208.1,310z"/>
</g>
</svg>
